<?xml version="1.0" ?><svg viewBox="0 0 512 512" xmlns="http://www.w3.org/2000/svg"><title/><g id="Forest"><path d="M305.4019,465a17.0981,17.0981,0,0,0,34.1962,0V406.0981H305.4019Z"/><path d="M140.729,465a17.0982,17.0982,0,0,0,34.1963,0V406.0981H140.729Z"/><path d="M480.7808,382.4224l-142.5-342a17.0959,17.0959,0,0,0-31.5616,0L224.3306,238.155,173.6079,116.4224a17.0958,17.0958,0,0,0-31.5615,0l-110.8272,266A17.0935,17.0935,0,0,0,47,406.0981h93.729V294a17.0982,17.0982,0,0,1,34.1963,0V406.0981H305.4019V349.6826l-37.74-37.74a17.0956,17.0956,0,0,1,24.1768-24.1768l13.5635,13.5635V237a17.0981,17.0981,0,0,1,34.1962,0v64.3291l13.5635-13.5635a17.0956,17.0956,0,0,1,24.1768,24.1768l-37.74,37.74v56.4155H465a17.0935,17.0935,0,0,0,15.7808-23.6757Z"/></g></svg>