<svg width="24" height="24" viewBox="0 0 24 24" fill="none" xmlns="http://www.w3.org/2000/svg">
<rect width="24" height="24" fill="black"></rect>
<path d="M10.4129 10.1816V9.56828C10.2002 9.53442 9.98519 9.51605 9.76975 9.51332C8.75552 9.5109 7.76705 9.83261 6.94853 10.4315C6.13002 11.0304 5.52428 11.8752 5.21967 12.8426C4.91507 13.81 4.92754 14.8495 5.25526 15.8093C5.58299 16.7691 6.20882 17.5991 7.04147 18.1782C6.41537 17.5075 5.99673 16.67 5.83606 15.7667C5.6754 14.8634 5.77957 13.9329 6.13601 13.0874C6.49246 12.242 7.08594 11.5178 7.84485 11.0022C8.60375 10.4866 9.49566 10.2016 10.4129 10.1816Z" fill="#25F4EE"></path>
<path d="M10.5288 17.1111C11.0889 17.1104 11.6273 16.8937 12.0317 16.506C12.4361 16.1184 12.6754 15.5897 12.6998 15.0301V4.65664H14.5954C14.5568 4.43993 14.5382 4.22012 14.5399 4H11.9479V14.3629C11.927 14.9252 11.6892 15.4575 11.2843 15.8483C10.8794 16.239 10.3389 16.4577 9.77622 16.4585C9.42689 16.4555 9.08325 16.3697 8.77344 16.2083C8.9742 16.4864 9.23785 16.7132 9.54289 16.87C9.84793 17.0269 10.1857 17.1095 10.5288 17.1111Z" fill="#25F4EE"></path>
<path d="M18.1352 8.17595V7.59942C17.4377 7.59941 16.7557 7.39357 16.1747 7.00769C16.6839 7.60006 17.3721 8.01056 18.1352 8.17712V8.17595Z" fill="#25F4EE"></path>
<path d="M16.1747 7.00774C15.6024 6.3559 15.2869 5.51813 15.2871 4.65076H14.5953C14.6847 5.13021 14.8708 5.58644 15.1422 5.99165C15.4137 6.39687 15.7647 6.74259 16.1741 7.00774H16.1747Z" fill="#FE2C55"></path>
<path d="M9.77154 12.107C9.28625 12.1097 8.81578 12.2745 8.43487 12.5752C8.05395 12.8759 7.78444 13.2953 7.66914 13.7667C7.55384 14.2381 7.59937 14.7345 7.7985 15.1771C7.99762 15.6196 8.33891 15.983 8.76817 16.2094C8.53341 15.8851 8.39285 15.5023 8.36201 15.1032C8.33118 14.704 8.41127 14.3041 8.59343 13.9477C8.7756 13.5912 9.05276 13.292 9.39429 13.0832C9.73582 12.8743 10.1284 12.764 10.5287 12.7642C10.7468 12.7665 10.9634 12.8002 11.1719 12.8642V10.2266C10.959 10.1947 10.7441 10.1781 10.5287 10.1769H10.4118V12.1825C10.2031 12.1265 9.98748 12.1011 9.77154 12.107Z" fill="#FE2C55"></path>
<path d="M18.1353 8.17603V10.1816C16.8438 10.1788 15.5859 9.76966 14.5398 9.01217V14.2822C14.5372 15.5451 14.0337 16.7554 13.1397 17.6475C12.2458 18.5396 11.0344 19.0406 9.77149 19.0406C8.79471 19.0425 7.84142 18.7412 7.04321 18.1782C7.69408 18.8783 8.54072 19.3662 9.47282 19.5783C10.4049 19.7904 11.3793 19.7168 12.269 19.3672C13.1588 19.0177 13.9226 18.4082 14.461 17.6184C14.9994 16.8285 15.2875 15.8948 15.2877 14.9388V9.68517C16.3373 10.4377 17.5969 10.8412 18.8884 10.8388V8.25613C18.6352 8.25558 18.3828 8.22873 18.1353 8.17603Z" fill="#FE2C55"></path>
<path d="M14.5398 14.2834V9.01332C15.59 9.76636 16.8505 10.1698 18.1428 10.1664V8.1608C17.3798 7.99979 16.6899 7.5951 16.177 7.00774C15.7677 6.74259 15.4166 6.39687 15.1452 5.99165C14.8737 5.58644 14.6877 5.13021 14.5983 4.65076H12.6997V15.0306C12.6812 15.4824 12.5225 15.9172 12.2455 16.2746C11.9686 16.6321 11.5872 16.8944 11.1544 17.0251C10.7215 17.1558 10.2587 17.1485 9.83019 17.0041C9.40171 16.8597 9.02884 16.5854 8.76339 16.2193C8.334 15.9932 7.99254 15.6299 7.79327 15.1874C7.59401 14.7449 7.54838 14.2484 7.66363 13.777C7.77888 13.3056 8.04841 12.8862 8.42937 12.5855C8.81033 12.2848 9.28086 12.1201 9.76618 12.1176C9.9843 12.1194 10.201 12.153 10.4094 12.2176V10.2114C9.48706 10.2271 8.58924 10.5108 7.82536 11.0279C7.06149 11.545 6.46456 12.2731 6.10735 13.1236C5.75014 13.9741 5.64809 14.9101 5.81363 15.8176C5.97917 16.725 6.40516 17.5647 7.03965 18.2343C7.84548 18.778 8.79954 19.0596 9.77144 19.0406C11.0342 19.0406 12.2453 18.5397 13.1392 17.6479C14.0332 16.7561 14.5368 15.5461 14.5398 14.2834Z" fill="white"></path>
</svg>