<svg width="24" height="24" viewBox="0 0 24 24" fill="none" xmlns="http://www.w3.org/2000/svg">
<path fill-rule="evenodd" clip-rule="evenodd" d="M2 15.2923V8.70371C2.01635 8.64265 2.02698 8.5802 2.03175 8.51717C2.05557 7.7432 2.09129 6.97321 2.27783 6.21909C2.70649 4.51637 3.69478 3.27803 5.31812 2.57551C6.19925 2.19448 7.13594 2.08335 8.08454 2.04366C8.24152 2.03762 8.40079 2.0247 8.55886 2.01187L8.55887 2.01187C8.60863 2.00783 8.65827 2.0038 8.70768 2H15.2963C15.3574 2.01635 15.4198 2.02698 15.4828 2.03175C16.2568 2.05557 17.0268 2.09129 17.7809 2.27783C19.4836 2.70649 20.722 3.69478 21.4245 5.31812C21.8055 6.19925 21.9167 7.13594 21.9563 8.08454C21.9624 8.24143 21.9753 8.4006 21.9881 8.55859V8.55862V8.55865L21.9881 8.5588C21.9922 8.60858 21.9962 8.65824 22 8.70768V15.2963C21.9837 15.3574 21.973 15.4198 21.9682 15.4828C21.9444 16.2568 21.9087 17.0268 21.7222 17.7809C21.2935 19.4836 20.3052 20.722 18.6819 21.4245C17.8008 21.8055 16.8641 21.9167 15.9155 21.9563C15.7586 21.9624 15.5993 21.9753 15.4413 21.9881L15.4412 21.9881L15.4411 21.9881C15.3914 21.9922 15.3417 21.9962 15.2923 22H8.70371C8.64265 21.9837 8.5802 21.973 8.51717 21.9682C7.7432 21.9444 6.97321 21.9087 6.21909 21.7222C4.51637 21.2935 3.27803 20.3052 2.57551 18.6819C2.19448 17.8008 2.08335 16.8641 2.04366 15.9155C2.03762 15.7585 2.0247 15.5992 2.01187 15.4411L2.01187 15.4411C2.00783 15.3914 2.0038 15.3417 2 15.2923ZM3.81818 12.0031H3.84983C3.84983 12.2588 3.84833 12.5146 3.84684 12.7704C3.84346 13.3459 3.84009 13.9215 3.85379 14.497C3.87357 15.2808 3.90126 16.0646 3.98039 16.8444C4.05556 17.5965 4.32459 18.2893 4.83495 18.8712C5.53918 19.6708 6.461 20.0113 7.48173 20.0707C8.65675 20.1419 9.83969 20.1617 11.0187 20.1736C12.1779 20.1894 13.341 20.1815 14.5002 20.1577C15.2836 20.1419 16.0669 20.1102 16.8463 20.0311C17.598 19.9559 18.2904 19.6867 18.872 19.176C19.6711 18.4714 20.0114 17.549 20.0707 16.5277C20.1419 15.352 20.1617 14.1684 20.1736 12.9887C20.1894 11.8289 20.1815 10.669 20.1578 9.50519C20.1419 8.72139 20.1103 7.93759 20.0312 7.15775C19.956 6.40562 19.687 5.71287 19.1766 5.13096C18.4724 4.33132 17.5505 3.99088 16.5298 3.93151C15.3548 3.86025 14.1719 3.84046 12.9929 3.82858C11.8337 3.81275 10.6705 3.81275 9.51132 3.84442L9.34283 3.84899C8.5361 3.87072 7.72703 3.89251 6.9318 4.01464C5.48379 4.24028 4.49867 5.0795 4.11095 6.52042C3.98653 6.99804 3.91488 7.48788 3.89731 7.98114C3.86936 8.84288 3.8561 9.70462 3.84285 10.5653C3.83547 11.0449 3.82809 11.5243 3.81818 12.0031ZM17.4545 12.0211C17.4588 8.99684 15.0242 6.54967 12.0084 6.54546C8.99684 6.54125 6.54967 8.97578 6.54546 11.9789C6.54125 15.0032 8.98 17.4503 11.9916 17.4545C15.0032 17.4588 17.4503 15.0284 17.4545 12.0211ZM12.0087 8.36364C10.0169 8.36364 8.36798 9.99089 8.36364 11.9566C8.36364 13.9874 9.97353 15.6364 11.9609 15.6364C13.9961 15.6364 15.6364 14.0178 15.6364 12.0087C15.6389 11.0442 15.2581 10.1182 14.5777 9.43458C13.8973 8.75095 12.9732 8.36571 12.0087 8.36364ZM17.6793 7.90909C18.3064 7.91046 18.8161 7.40357 18.8182 6.77647C18.8191 6.47447 18.6998 6.18452 18.4866 5.97063C18.2734 5.75673 17.9838 5.63646 17.6818 5.63636C17.0547 5.63637 16.5461 6.14438 16.5455 6.77149C16.5448 7.39859 17.0522 7.90771 17.6793 7.90909Z" fill="url(#paint0_linear_6694_33)"></path>
<defs>
<linearGradient id="paint0_linear_6694_33" x1="3.16694" y1="3.05146" x2="9.47276" y2="27.4432" gradientUnits="userSpaceOnUse">
<stop stop-color="#4E60D3"></stop>
<stop offset="0.142763" stop-color="#913BAF"></stop>
<stop offset="0.761458" stop-color="#D52D88"></stop>
<stop offset="1" stop-color="#F26D4F"></stop>
</linearGradient>
</defs>
</svg>