<svg xmlns="http://www.w3.org/2000/svg" width="16" height="16"><g fill="none" fill-rule="evenodd"><path fill="#073E68" fill-rule="nonzero" d="M9.24 6.336C12.267 4.408 16 4.035 16 4.035s-4.061 4.746-5.054 6.939c-.22.684.047 1.277.216 1.559 1.23 1.734 2.697 2.095 2.889 2.293-.677-.15-.29.174-.29.174s-1.081-.773-3.256-1.405c-2.175-.633-3.872-.73-4.91-1.336-.8-.617-.825-1.12-1.205-1.458C3.142 9.69 0 9.225 0 9.225l2.703.453s.372 0 .81-.162c.095-.012.396-.365 1.048-.142.268.09.193.19.96.411.974.282.869-1.52.869-1.52s-.2-.725-.27-.934c-.186-.563-.377-1.135-.377-2.112 0-1.34 2.22-2.77 3.573-3.219-.142 1.882-.15 3.26-.077 4.336z"></path><path fill="#1B1B1B" d="M9 6.73A15.548 15.548 0 0 1 10.577 6c-.05 1.824.192 3.734.423 5.035-.025.044-.05.087-.072.13-.116.304-.112.59-.056.835a16.937 16.937 0 0 1-.385-.539 10.61 10.61 0 0 1-.667-1.326C9.48 9.216 9.135 8.3 9 6.731z"></path></g></svg>
