<svg width="24" height="24" viewBox="0 0 24 24" fill="none" xmlns="http://www.w3.org/2000/svg">
<path d="M4 7V19C4 20.1046 4.89543 21 6 21H18C19.1046 21 20 20.1046 20 19V7M4 7V5C4 3.89543 4.89543 3 6 3H18C19.1046 3 20 3.89543 20 5V7M4 7H8.5M20 7H12" stroke="#0194F3" stroke-width="2" stroke-linecap="round" stroke-linejoin="round"></path>
<path d="M16 17H12.5C12.2239 17 12 16.7761 12 16.5C12 16.2239 12.2239 16 12.5 16H16C16.2761 16 16.5 16.2239 16.5 16.5C16.5 16.7761 16.2761 17 16 17Z" stroke="#0194F3" stroke-width="2" stroke-linecap="round" stroke-linejoin="round"></path>
<path d="M16 12H12.5C12.2239 12 12 11.7761 12 11.5C12 11.2239 12.2239 11 12.5 11H16C16.2761 11 16.5 11.2239 16.5 11.5C16.5 11.7761 16.2761 12 16 12Z" stroke="#0194F3" stroke-width="2" stroke-linecap="round" stroke-linejoin="round"></path>
<path d="M7.5 12V11H8.5V12H7.5Z" stroke="#0194F3" stroke-width="2" stroke-linecap="round" stroke-linejoin="round"></path>
<path d="M7.5 17V16H8.5V17H7.5Z" stroke="#0194F3" stroke-width="2" stroke-linecap="round" stroke-linejoin="round"></path>
</svg>