<svg width="24" height="24" viewBox="0 0 24 24" fill="none" xmlns="http://www.w3.org/2000/svg">
<path d="M15.8042 3.77412C16.4215 3.05771 17.4324 2.89561 18.2682 3.05855C20.956 3.58258 21.0485 7.52904 20.7577 9.63534C20.4588 11.8005 19.4067 14.3118 16.8594 16.8591C14.3115 19.4069 11.8173 20.4415 9.66037 20.7311C7.557 21.0136 3.58341 20.9592 3.05863 18.2681C2.89566 17.4324 3.05773 16.4214 3.77414 15.8041C3.77867 15.8002 3.78328 15.7964 3.78795 15.7927L7.33348 12.953C7.48239 12.8261 7.65337 12.7228 7.84935 12.6783C8.0586 12.6308 8.2571 12.6591 8.43216 12.7366C8.7396 12.8726 8.96749 13.1615 9.12904 13.3792C9.55006 13.9463 9.92281 14.7488 10.5453 15.1268C10.7171 15.2311 10.8882 15.2663 11.1224 15.1953C12.4406 14.7957 14.7646 12.5435 15.1954 11.1223C15.2664 10.8881 15.2313 10.717 15.127 10.5452C14.7489 9.92269 13.9464 9.54994 13.3793 9.12892C13.1616 8.96731 12.8727 8.73937 12.7367 8.43183C12.6593 8.25674 12.631 8.05826 12.6786 7.84904C12.7231 7.65309 12.8263 7.48211 12.9532 7.33321L15.7927 3.78793C15.7964 3.78326 15.8003 3.77865 15.8042 3.77412Z" fill="#687176"></path>
</svg>