<svg width="24" height="24" viewBox="0 0 24 24" fill="none" xmlns="http://www.w3.org/2000/svg">
<path fill-rule="evenodd" clip-rule="evenodd" d="M21 10C21 7.25554 20.0331 4.98482 18.3787 3.40236C16.7312 1.8265 14.4725 1 12 1C9.52754 1 7.26876 1.8265 5.62128 3.40236C3.96688 4.98482 3 7.25554 3 10C3 13.4069 5.24119 16.5278 7.2718 18.6854C8.31023 19.7887 9.34524 20.694 10.1194 21.323C10.5073 21.6381 10.8316 21.8855 11.0609 22.0554C11.0795 22.0692 11.0982 22.0831 11.1169 22.0971C11.3805 22.2937 11.6567 22.4998 12 22.4998C12.3432 22.4999 12.6194 22.2938 12.8829 22.0972C12.9017 22.0832 12.9205 22.0692 12.9391 22.0554C13.1684 21.8855 13.4927 21.6381 13.8806 21.323C14.6548 20.694 15.6898 19.7887 16.7282 18.6854C18.7588 16.5278 21 13.4069 21 10ZM15.5 9.5C15.5 11.433 13.933 13 12 13C10.067 13 8.5 11.433 8.5 9.5C8.5 7.567 10.067 6 12 6C13.933 6 15.5 7.567 15.5 9.5Z" fill="#687176"></path>
</svg>