<svg width="24" height="24" viewBox="0 0 24 24" fill="none" xmlns="http://www.w3.org/2000/svg">
<path d="M22.7724 7.45454C22.7724 7.45454 22.5448 5.89089 21.9 5.2C21.0655 4.29091 20.1172 4.29091 19.7 4.25453C16.6276 4.03637 12 4 12 4C12 4 7.37239 4.03637 4.3 4.25453C3.88277 4.29091 2.9345 4.32728 2.1 5.2C1.41723 5.89093 1.22761 7.45454 1.22761 7.45454C1.22761 7.45454 1 9.3091 1 11.1637V12.8728C1 14.7273 1.22761 16.5455 1.22761 16.5455C1.22761 16.5455 1.45521 18.1092 2.1 18.8C2.9345 19.7091 4.0345 19.6728 4.52761 19.7819C6.27239 19.9636 12 20 12 20C12 20 16.6276 20 19.7 19.7455C20.1172 19.7091 21.0655 19.6727 21.9 18.8C22.5448 18.1091 22.7724 16.5455 22.7724 16.5455C22.7724 16.5455 23 14.6909 23 12.8727V11.1636C23 9.3091 22.7724 7.45454 22.7724 7.45454Z" fill="#FF0000"></path>
<path d="M9 8V16L16 12.092L9 8Z" fill="#F7F9FA"></path>
</svg>