<svg width="24" height="24" viewBox="0 0 24 24" fill="none" xmlns="http://www.w3.org/2000/svg">
<path d="M4 18L10.0629 20.8531C11.5362 21.5464 13.2827 21.2775 14.4792 20.1731L14.6667 20M4 18L2.22271 17.2891C1.79769 17.1191 1.54238 16.6822 1.60287 16.2284L2.36862 10.4853C2.44131 9.9402 2.94055 9.55607 3.4861 9.6255L6.42857 10M4 18L6 11.125M18.6908 14.5778L19 16L16.7003 18.1228M17 8.5L13.1902 7.35707C12.4281 7.12844 11.6064 7.21192 10.9059 7.58914L5.5 10.5L6.05408 11.1926C6.90599 12.2575 8.36893 12.6138 9.61511 12.06L12 11L15.4212 14.0791C16.3672 14.9305 17.7474 15.0923 18.8647 14.4829L19.75 14M17 8.5L19.75 14M17 8.5L19.4377 7.45529C19.9979 7.21519 20.6408 7.52784 20.7978 8.11677L22.29 13.7124C22.4123 14.171 22.1954 14.6523 21.771 14.8645L21.3944 15.0528C20.9004 15.2998 20.2998 15.0996 20.0528 14.6056L19.75 14M14.6667 20L12.5 18.5M14.6667 20L16.7003 18.1228M16.7003 18.1228L14.5 16.5" stroke="#ffffff" stroke-width="2" stroke-linecap="round" stroke-linejoin="round"></path>
<path d="M12 2.5V3.5M7 4L8 5M17 4L16 5" stroke="#ffffff" stroke-width="2" stroke-linecap="round" stroke-linejoin="round"></path>
</svg>