<?xml version="1.0" encoding="iso-8859-1"?>
<!-- Uploaded to: SVG Repo, www.svgrepo.com, Generator: SVG Repo Mixer Tools -->
<svg fill="#000000" height="800px" width="800px" version="1.1" id="Layer_1" xmlns="http://www.w3.org/2000/svg" xmlns:xlink="http://www.w3.org/1999/xlink" 
	 viewBox="0 0 512 512" xml:space="preserve">
<g>
	<g>
		<g>
			<path d="M8.084,301.811c10.401,0,18.863,8.463,18.863,18.863c0,4.465,3.62,8.084,8.084,8.084c4.465,0,8.084-3.62,8.084-8.084
				c0-10.401,8.463-18.863,18.863-18.863c4.465,0,8.084-3.62,8.084-8.084s-3.62-8.084-8.084-8.084
				c-10.823,0-20.517,4.935-26.947,12.671c-6.431-7.736-16.124-12.671-26.947-12.671c-4.465,0-8.084,3.62-8.084,8.084
				S3.62,301.811,8.084,301.811z"/>
			<path d="M99.705,199.411c26.633,0,51.67-10.371,70.503-29.203c3.157-3.157,3.157-8.275,0-11.432
				c-3.156-3.157-8.275-3.157-11.432,0c-15.779,15.777-36.757,24.467-59.071,24.467c-46.062,0-83.537-37.475-83.537-83.537
				c0-4.465-3.62-8.084-8.084-8.084S0,95.241,0,99.705C0,154.683,44.727,199.411,99.705,199.411z"/>
			<path d="M113.179,424.871c0-4.465-3.62-8.084-8.084-8.084H51.2c-4.465,0-8.084,3.62-8.084,8.084c0,4.465,3.62,8.084,8.084,8.084
				h53.895C109.559,432.955,113.179,429.335,113.179,424.871z"/>
			<path d="M9.544,81.422c0.765,0.226,1.537,0.334,2.296,0.334c3.489,0,6.709-2.276,7.749-5.794
				c10.415-35.205,43.36-59.794,80.117-59.794c36.74,0,69.682,24.575,80.107,59.763c1.269,4.28,5.763,6.723,10.048,5.454
				c4.28-1.269,6.723-5.767,5.454-10.047c-5.981-20.189-18.565-38.349-35.429-51.133C142.45,6.986,121.64,0,99.705,0
				C77.764,0,56.948,6.99,39.509,20.216C22.64,33.008,10.06,51.177,4.084,71.376C2.818,75.657,5.261,80.154,9.544,81.422z"/>
			<path d="M213.243,495.832H83.896c-4.465,0-8.084,3.62-8.084,8.084c0,4.465,3.62,8.084,8.084,8.084h129.347
				c4.465,0,8.084-3.62,8.084-8.084C221.327,499.451,217.709,495.832,213.243,495.832z"/>
			<path d="M43.116,99.705c0,31.204,25.385,56.589,56.589,56.589s56.589-25.385,56.589-56.589s-25.385-56.589-56.589-56.589
				S43.116,68.501,43.116,99.705z M140.126,99.705c0,22.289-18.132,40.421-40.421,40.421s-40.421-18.132-40.421-40.421
				s18.132-40.421,40.421-40.421S140.126,77.417,140.126,99.705z"/>
			<path d="M342.232,172.463c-4.466,0-8.084,3.62-8.084,8.084c0,4.465,3.619,8.084,8.084,8.084h53.895
				c4.466,0,8.084-3.62,8.084-8.084c0-4.465-3.618-8.084-8.084-8.084H342.232z"/>
			<path d="M256,172.463c-4.465,0-8.084,3.62-8.084,8.084c0,4.465,3.62,8.084,8.084,8.084h53.895c4.466,0,8.084-3.62,8.084-8.084
				c0-4.465-3.618-8.084-8.084-8.084H256z"/>
			<path d="M385.347,86.232h43.116c4.466,0,8.084-3.62,8.084-8.084c0-4.465-3.618-8.084-8.084-8.084h-43.116
				c-4.466,0-8.084,3.62-8.084,8.084C377.263,82.612,380.882,86.232,385.347,86.232z"/>
			<path d="M374.568,432.955c4.466,0,8.084-3.62,8.084-8.084c0-4.465-3.619-8.084-8.084-8.084H137.432
				c-4.465,0-8.084,3.62-8.084,8.084c0,4.465,3.62,8.084,8.084,8.084H374.568z"/>
			<path d="M471.579,173.541c4.466,0,8.084-3.62,8.084-8.084v-9.162h2.695c16.344,0,29.642-13.297,29.642-29.642
				s-13.298-29.642-29.642-29.642h-2.695V59.284h2.695c16.344,0,29.642-13.297,29.642-29.642C512,13.297,498.702,0,482.358,0
				H331.453c-16.344,0-29.642,13.297-29.642,29.642c0,16.345,13.298,29.642,29.642,29.642h2.695v37.726H202.105
				c-16.345,0-29.642,13.297-29.642,29.642s13.297,29.642,29.642,29.642h2.695v59.284h-88.926
				c-16.345,0-29.642,13.297-29.642,29.642c0,16.345,13.297,29.642,29.642,29.642h2.695v59.284h-2.695
				c-25.481,0-46.676,18.711-50.563,43.116H8.084c-4.465,0-8.084,3.62-8.084,8.084c0,4.465,3.62,8.084,8.084,8.084h194.021
				c4.465,0,8.084-3.62,8.084-8.084c0-4.465-3.62-8.084-8.084-8.084H81.784c3.658-15.432,17.555-26.947,34.09-26.947h121.9
				c1.646,10.333,6.394,19.644,13.256,26.947h-16.588c-4.465,0-8.084,3.62-8.084,8.084c0,4.465,3.62,8.084,8.084,8.084H460.8
				c28.231,0,51.2-22.969,51.2-51.2V238.035c0-30.212-24.58-54.793-54.793-54.793c-25.453,0-46.911,17.449-53.039,41.011
				c-8.728-5.612-18.958-8.674-29.6-8.674c-25.454,0-46.911,17.447-53.038,41.011c-8.73-5.613-18.959-8.674-29.601-8.674
				c-30.212,0-54.793,24.579-54.793,54.793v31.439h-102.4v-59.284h91.352c4.465,0,8.084-3.62,8.084-8.084
				c0-4.465-3.62-8.084-8.084-8.084H115.874c-7.43,0-13.474-6.044-13.474-13.474s6.044-13.474,13.474-13.474h204.801
				c4.466,0,8.084-3.62,8.084-8.084c0-4.465-3.618-8.084-8.084-8.084h-99.706v-59.284h178.122c4.466,0,8.084-3.62,8.084-8.084
				c0-4.465-3.618-8.084-8.084-8.084H202.105c-7.43,0-13.474-6.044-13.474-13.474s6.044-13.474,13.474-13.474h280.253
				c7.43,0,13.474,6.044,13.474,13.474s-6.044,13.474-13.474,13.474h-53.895c-4.466,0-8.084,3.62-8.084,8.084
				c0,4.465,3.618,8.084,8.084,8.084h35.032v9.162C463.495,169.921,467.113,173.541,471.579,173.541z M253.305,302.708
				c0-21.297,17.326-38.624,38.625-38.625c11.511,0,22.341,5.086,29.714,13.952c2.176,2.617,5.759,3.592,8.964,2.434
				c3.202-1.158,5.336-4.197,5.336-7.602v-2.495c0-21.297,17.326-38.624,38.624-38.624c11.512,0,22.343,5.086,29.713,13.951
				c2.176,2.618,5.762,3.591,8.964,2.435c3.203-1.159,5.337-4.198,5.337-7.603v-2.495c0-21.297,17.327-38.624,38.625-38.624
				c21.298,0,38.624,17.327,38.624,38.624v25.846c-9.913-9.862-23.569-15.965-38.624-15.965c-25.453,0-46.911,17.449-53.039,41.011
				c-8.728-5.612-18.958-8.674-29.6-8.674c-25.454,0-46.911,17.447-53.037,41.011c-8.73-5.613-18.959-8.674-29.601-8.674
				c-3.959,0-7.912,0.426-11.752,1.266c-4.361,0.954-7.125,5.263-6.171,9.625c0.955,4.361,5.259,7.125,9.626,6.17
				c2.707-0.593,5.498-0.893,8.298-0.893c11.511,0,22.341,5.086,29.714,13.952c2.176,2.617,5.759,3.59,8.964,2.434
				c3.202-1.158,5.336-4.197,5.336-7.602v-2.495c0-21.297,17.326-38.624,38.624-38.624c11.512,0,22.343,5.085,29.713,13.951
				c2.176,2.618,5.762,3.59,8.964,2.435c3.203-1.159,5.337-4.198,5.337-7.603v-2.495c0-21.297,17.327-38.624,38.625-38.624
				c21.298,0,38.624,17.327,38.624,38.624v39.523c0,19.316-15.715,35.032-35.032,35.032H292.12h-3.783
				c-19.317,0-35.032-15.716-35.032-35.032V302.708z M331.453,43.116c-7.43,0-13.474-6.044-13.474-13.474
				c0-7.43,6.044-13.474,13.474-13.474h150.905c7.43,0,13.474,6.044,13.474,13.474c0,7.43-6.044,13.474-13.474,13.474H331.453z
				 M463.495,97.011H350.316V59.284h113.179V97.011z"/>
			<path d="M406.905,456.308H169.768c-4.465,0-8.084,3.62-8.084,8.084c0,4.465,3.62,8.084,8.084,8.084h237.137
				c4.466,0,8.084-3.62,8.084-8.084C414.989,459.928,411.371,456.308,406.905,456.308z"/>
			<path d="M158.989,291.032c-4.465,0-8.084,3.62-8.084,8.084s3.62,8.084,8.084,8.084h53.895c4.465,0,8.084-3.62,8.084-8.084
				s-3.62-8.084-8.084-8.084H158.989z"/>
			<path d="M493.137,456.308h-53.895c-4.466,0-8.084,3.62-8.084,8.084c0,4.465,3.618,8.084,8.084,8.084h53.895
				c4.466,0,8.084-3.62,8.084-8.084C501.221,459.928,497.603,456.308,493.137,456.308z"/>
		</g>
	</g>
</g>
</svg>